/* XPM */
static char * frameABL_xpm[] = {
"5 5 4 1",
" 	c None",
".	c #000000",
"+	c #5C5C5C",
"@	c #121212",
" .+..",
" .+..",
"  .++",
"   .@",
"     "};
