/* XPM */
static char * restoreO_xpm[] = {
"25 60 27 1",
" 	c None",
".	c #949494",
"+	c #8D8D8D",
"@	c #848484",
"#	c #7D7D7D",
"$	c #747474",
"%	c #6D6D6D",
"&	c #000000",
"*	c #353535",
"=	c #B7B7B7",
"-	c #828282",
";	c #707070",
">	c #555555",
",	c #FFFFFF",
"'	c #414141",
")	c #2E2E2E",
"!	c #00354D",
"~	c #004A6D",
"{	c #00618E",
"]	c #0093D7",
"^	c #34BFFF",
"/	c #AAE4FF",
"(	c #202020",
"_	c #9A9A9A",
":	c #666666",
"<	c #0079B1",
"[	c #0091D5",
".........................",
"+++++++++++++++++++++++++",
"@@@@@@@@@@@@@@@@@@@@@@@@@",
"#########################",
"$$$$$$$$$$$$$$$$$$$$$$$$$",
"%%%%%%%%%%%%%%%%%%%%%%%%%",
"&&&&&&&&&&&&&&&&&&&&&&&&&",
"*=======================*",
"*=---------------------=*",
"*=;;;;;;;&&&&&&&;;;;;;;=*",
"*=>>>>>>&,,,,,,,&>>>>>>=*",
"*=''''''&,''',',&''''''=*",
"*=))))))&,))),),&))))))=*",
"*=!!!!!!&,,,,,!,&!!!!!!=*",
"*=~~~~~~&,~~~~~,&~~~~~~=*",
"*={{{{{{&,,,,,,,&{{{{{{=*",
"*=]]]]]]]&&&&&&&]]]]]]]=*",
"*=^^^^^^^^^^^^^^^^^^^^^=*",
"*///////////////////////*",
"(***********************(",
"&&&&&&&&&&&&&&&&&&&&&&&&&",
"&&&&&&&&&&&&&&&&&&&&&&&&&",
"&&&&&&&&&&&&&&&&&&&&&&&&&",
"&&&&&&&&&&&&&&&&&&&&&&&&&",
"&&&&&&&&&&&&&&&&&&&&&&&&&",
"&&&&&&&&&&&&&&&&&&&&&&&&&",
"&&&&&&&&&&&&&&&&&&&&&&&&&",
"&&&&&&&&&&&&&&&&&&&&&&&&&",
"&&&&&&&&&&&&&&&&&&&&&&&&&",
"&&&&&&&&&&&&&&&&&&&&&&&&&",
".........................",
"+++++++++++++++++++++++++",
"@@@@@@@@@@@@@@@@@@@@@@@@@",
"#########################",
"$$$$$$$$$$$$$$$$$$$$$$$$$",
"%%%%%%%%%%%%%%%%%%%%%%%%%",
"&&&&&&&&&&&&&&&&&&&&&&&&&",
"*_______________________*",
"*_;;;;;;;;;;;;;;;;;;;;;_*",
"*_:::::::::::::::::::::_*",
"*_>>>>>>>&&&&&&&>>>>>>>_*",
"*_''''''&,,,,,,,&''''''_*",
"*_))))))&,))),),&))))))_*",
"*_!!!!!!&,!!!,!,&!!!!!!_*",
"*_~~~~~~&,,,,,~,&~~~~~~_*",
"*_{{{{{{&,{{{{{,&{{{{{{_*",
"*_<<<<<<&,,,,,,,&<<<<<<_*",
"*_[[[[[[[&&&&&&&[[[[[[[_*",
"*_______________________*",
"(***********************(",
"&&&&&&&&&&&&&&&&&&&&&&&&&",
"&&&&&&&&&&&&&&&&&&&&&&&&&",
"&&&&&&&&&&&&&&&&&&&&&&&&&",
"&&&&&&&&&&&&&&&&&&&&&&&&&",
"&&&&&&&&&&&&&&&&&&&&&&&&&",
"&&&&&&&&&&&&&&&&&&&&&&&&&",
"&&&&&&&&&&&&&&&&&&&&&&&&&",
"&&&&&&&&&&&&&&&&&&&&&&&&&",
"&&&&&&&&&&&&&&&&&&&&&&&&&",
"&&&&&&&&&&&&&&&&&&&&&&&&&"};
