/* XPM */
static char * closeO_xpm[] = {
"25 60 30 1",
" 	c None",
".	c #949494",
"+	c #8D8D8D",
"@	c #848484",
"#	c #7D7D7D",
"$	c #747474",
"%	c #6D6D6D",
"&	c #000000",
"*	c #353535",
"=	c #B7B7B7",
"-	c #828282",
";	c #707070",
">	c #555555",
",	c #FFFFFF",
"'	c #414141",
")	c #2E2E2E",
"!	c #1D1D1D",
"~	c #700000",
"{	c #A60000",
"]	c #D40000",
"^	c #FF3F3F",
"/	c #EFBCBC",
"(	c #202020",
"_	c #9A9A9A",
":	c #666666",
"<	c #580000",
"[	c #760000",
"}	c #910000",
"|	c #CB0101",
"1	c #CD9B9B",
".........................",
"+++++++++++++++++++++++++",
"@@@@@@@@@@@@@@@@@@@@@@@@@",
"#########################",
"$$$$$$$$$$$$$$$$$$$$$$$$$",
"%%%%%%%%%%%%%%%%%%%%%%%%%",
"&&&&&&&&&&&&&&&&&&&&&&&&&",
"*=======================*",
"*=---------------------=*",
"*=;;;;;;;;&;;;&;;;;;;;;=*",
"*=>>>>>>>&,&>&,&>>>>>>>=*",
"*=''''''''&,&,&''''''''=*",
"*=)))))))))&,&)))))))))=*",
"*=!!!!!!!!!&,&!!!!!!!!!=*",
"*=~~~~~~~~&,&,&~~~~~~~~=*",
"*={{{{{{{&,&{&,&{{{{{{{=*",
"*=]]]]]]]]&]]]&]]]]]]]]=*",
"*=^^^^^^^^^^^^^^^^^^^^^=*",
"*///////////////////////*",
"(***********************(",
"&&&&&&&&&&&&&&&&&&&&&&&&&",
"&&&&&&&&&&&&&&&&&&&&&&&&&",
"&&&&&&&&&&&&&&&&&&&&&&&&&",
"&&&&&&&&&&&&&&&&&&&&&&&&&",
"&&&&&&&&&&&&&&&&&&&&&&&&&",
"&&&&&&&&&&&&&&&&&&&&&&&&&",
"&&&&&&&&&&&&&&&&&&&&&&&&&",
"&&&&&&&&&&&&&&&&&&&&&&&&&",
"&&&&&&&&&&&&&&&&&&&&&&&&&",
"&&&&&&&&&&&&&&&&&&&&&&&&&",
".........................",
"+++++++++++++++++++++++++",
"@@@@@@@@@@@@@@@@@@@@@@@@@",
"#########################",
"$$$$$$$$$$$$$$$$$$$$$$$$$",
"%%%%%%%%%%%%%%%%%%%%%%%%%",
"&&&&&&&&&&&&&&&&&&&&&&&&&",
"*_______________________*",
"*_;;;;;;;;;;;;;;;;;;;;;_*",
"*_:::::::::::::::::::::_*",
"*_>>>>>>>>&>>>&>>>>>>>>_*",
"*_'''''''&,&'&,&'''''''_*",
"*_))))))))&,&,&))))))))_*",
"*_!!!!!!!!!&,&!!!!!!!!!_*",
"*_<<<<<<<<<&,&<<<<<<<<<_*",
"*_[[[[[[[[&,&,&[[[[[[[[_*",
"*_}}}}}}}&,&}&,&}}}}}}}_*",
"*_||||||||&|||&||||||||_*",
"*_111111111111111111111_*",
"(***********************(",
"&&&&&&&&&&&&&&&&&&&&&&&&&",
"&&&&&&&&&&&&&&&&&&&&&&&&&",
"&&&&&&&&&&&&&&&&&&&&&&&&&",
"&&&&&&&&&&&&&&&&&&&&&&&&&",
"&&&&&&&&&&&&&&&&&&&&&&&&&",
"&&&&&&&&&&&&&&&&&&&&&&&&&",
"&&&&&&&&&&&&&&&&&&&&&&&&&",
"&&&&&&&&&&&&&&&&&&&&&&&&&",
"&&&&&&&&&&&&&&&&&&&&&&&&&",
"&&&&&&&&&&&&&&&&&&&&&&&&&"};
