/* XPM */
static char * frameAB_xpm[] = {
"1 5 3 1",
" 	c None",
".	c #000000",
"+	c #5C5C5C",
".",
".",
".",
"+",
"."};
