/* XPM */
static char * maximizeA_xpm[] = {
"25 60 20 1",
" 	c None",
".	c #949494",
"+	c #8D8D8D",
"@	c #848484",
"#	c #7D7D7D",
"$	c #747474",
"%	c #6D6D6D",
"&	c #000000",
"*	c #9A9A9A",
"=	c #707070",
"-	c #666666",
";	c #555555",
">	c #FFFFFF",
",	c #414141",
"'	c #2E2E2E",
")	c #1D1D1D",
"!	c #580000",
"~	c #760000",
"{	c #910000",
"]	c #CB0101",
".........................",
"+++++++++++++++++++++++++",
"@@@@@@@@@@@@@@@@@@@@@@@@@",
"#########################",
"$$$$$$$$$$$$$$$$$$$$$$$$$",
"%%%%%%%%%%%%%%%%%%%%%%%%%",
"&&&&&&&&&&&&&&&&&&&&&&&&&",
"&***********************&",
"&*=====================*&",
"&*-------&&&&&&&-------*&",
"&*;;;;;;&>>>>>>>&;;;;;;*&",
"&*,,,,,,&>,,,,,>&,,,,,,*&",
"&*''''''&>'''''>&''''''*&",
"&*))))))&>)))))>&))))))*&",
"&*!!!!!!&>!!!!!>&!!!!!!*&",
"&*~~~~~~&>>>>>>>&~~~~~~*&",
"&*{{{{{{{&&&&&&&{{{{{{{*&",
"&*]]]]]]]]]]]]]]]]]]]]]*&",
"&***********************&",
"&&&&&&&&&&&&&&&&&&&&&&&&&",
"&&&&&&&&&&&&&&&&&&&&&&&&&",
"&&&&&&&&&&&&&&&&&&&&&&&&&",
"&&&&&&&&&&&&&&&&&&&&&&&&&",
"&&&&&&&&&&&&&&&&&&&&&&&&&",
"&&&&&&&&&&&&&&&&&&&&&&&&&",
"&&&&&&&&&&&&&&&&&&&&&&&&&",
"&&&&&&&&&&&&&&&&&&&&&&&&&",
"&&&&&&&&&&&&&&&&&&&&&&&&&",
"&&&&&&&&&&&&&&&&&&&&&&&&&",
"&&&&&&&&&&&&&&&&&&&&&&&&&",
".........................",
"+++++++++++++++++++++++++",
"@@@@@@@@@@@@@@@@@@@@@@@@@",
"#########################",
"$$$$$$$$$$$$$$$$$$$$$$$$$",
"%%%%%%%%%%%%%%%%%%%%%%%%%",
"&&&&&&&&&&&&&&&&&&&&&&&&&",
"&***********************&",
"&*=====================*&",
"&*-------&&&&&&&-------*&",
"&*;;;;;;&>>>>>>>&;;;;;;*&",
"&*,,,,,,&>,,,,,>&,,,,,,*&",
"&*''''''&>'''''>&''''''*&",
"&*))))))&>)))))>&))))))*&",
"&*!!!!!!&>!!!!!>&!!!!!!*&",
"&*~~~~~~&>>>>>>>&~~~~~~*&",
"&*{{{{{{{&&&&&&&{{{{{{{*&",
"&*]]]]]]]]]]]]]]]]]]]]]*&",
"&***********************&",
"&&&&&&&&&&&&&&&&&&&&&&&&&",
"&&&&&&&&&&&&&&&&&&&&&&&&&",
"&&&&&&&&&&&&&&&&&&&&&&&&&",
"&&&&&&&&&&&&&&&&&&&&&&&&&",
"&&&&&&&&&&&&&&&&&&&&&&&&&",
"&&&&&&&&&&&&&&&&&&&&&&&&&",
"&&&&&&&&&&&&&&&&&&&&&&&&&",
"&&&&&&&&&&&&&&&&&&&&&&&&&",
"&&&&&&&&&&&&&&&&&&&&&&&&&",
"&&&&&&&&&&&&&&&&&&&&&&&&&",
"&&&&&&&&&&&&&&&&&&&&&&&&&"};
