/* XPM */
static char * titleAT_xpm[] = {
"1 30 24 1",
" 	c None",
".	c #949494",
"+	c #8D8D8D",
"@	c #848484",
"#	c #7D7D7D",
"$	c #000000",
"%	c #A2A2A2",
"&	c #7C7C7C",
"*	c #767676",
"=	c #707070",
"-	c #6A6A6A",
";	c #636363",
">	c #5C5C5C",
",	c #535353",
"'	c #4A4A4A",
")	c #383838",
"!	c #252525",
"~	c #1A1A1A",
"{	c #160000",
"]	c #230000",
"^	c #490000",
"/	c #6A0000",
"(	c #910000",
"_	c #CB0101",
".",
"+",
"@",
"#",
"$",
"%",
"&",
"*",
"=",
"-",
";",
">",
",",
"'",
")",
"!",
"~",
"{",
"]",
"^",
"/",
"(",
"_",
"%",
"$",
"$",
"$",
"$",
"$",
"$"};
