/* XPM */
static char * titleAB_xpm[] = {
"1 30 21 1",
" 	c None",
".	c #949494",
"+	c #8D8D8D",
"@	c #848484",
"#	c #7D7D7D",
"$	c #747474",
"%	c #6D6D6D",
"&	c #646464",
"*	c #5D5D5D",
"=	c #545454",
"-	c #4D4D4D",
";	c #444444",
">	c #3D3D3D",
",	c #343434",
"'	c #2D2D2D",
")	c #242424",
"!	c #202020",
"~	c #1D1D1D",
"{	c #141414",
"]	c #0D0D0D",
"^	c #000000",
".",
"+",
"@",
"#",
"$",
"%",
"&",
"*",
"=",
"-",
";",
">",
",",
"'",
")",
"!",
"~",
"{",
"]",
"^",
"^",
"^",
"^",
"^",
"^",
"^",
"^",
"^",
"^",
"^"};
