/* XPM */
static char * Menu_xpm[] = {
"50 20 62 1",
" 	c None",
".	c #000000",
"+	c #999999",
"@	c #9A9A9A",
"#	c #707070",
"$	c #666666",
"%	c #555555",
"&	c #FFFFFF",
"*	c #D5D5D5",
"=	c #D6D6D6",
"-	c #474747",
";	c #676767",
">	c #6B6B6B",
",	c #383838",
"'	c #D0D0D0",
")	c #B1B1B1",
"!	c #B5B5B5",
"~	c #414141",
"{	c #AEAEAE",
"]	c #EBEBEB",
"^	c #F2F2F2",
"/	c #C0C0C0",
"(	c #4C4C4C",
"_	c #7B7B7B",
":	c #3A3A3A",
"<	c #232323",
"[	c #F7F7F7",
"}	c #F8F8F8",
"|	c #A8A8A8",
"1	c #636363",
"2	c #4F4F4F",
"3	c #C3C3C3",
"4	c #E8E8E8",
"5	c #FCFCFC",
"6	c #001E2C",
"7	c #D6DADD",
"8	c #DFE2E4",
"9	c #EAECED",
"0	c #F7F7F8",
"a	c #082532",
"b	c #011F2C",
"c	c #FBFBFB",
"d	c #00354E",
"e	c #628291",
"f	c #E9EDEF",
"g	c #14445B",
"h	c #083B53",
"i	c #004463",
"j	c #99B4C0",
"k	c #8BAAB8",
"l	c #074867",
"m	c #E6ECEF",
"n	c #316780",
"o	c #648D9F",
"p	c #005177",
"q	c #0B587C",
"r	c #8FB2C3",
"s	c #E1EAEE",
"t	c #598DA6",
"u	c #E7EEF1",
"v	c #005E8A",
"w	c #006FA2",
"                                                  ",
"                                                  ",
"  ..............................................  ",
"  .+@@@@@@@@@@@@@@@@@@@@@@@@@@@@@@@@@@@@@@@@@@+.  ",
"  .@##########################################@.  ",
"  .@$$$$$$$$$$$$$$$$$$$$$$$$$$$$$$$$$$$$$$$$$$@.  ",
"  .@%%%%&&*%%%=&&%%%%%%%%%%%%%%%%%%%%%%%%%%%%%@.  ",
"  .@----&&&;->&&&-----------------------------@.  ",
"  .@,,,,&&'),!'&&,,~{]^/(,,&&&&]_,,&&,,&&,::::@.  ",
"  .@<<<<&&$[-}$&&<<|&12&3<<&&_2&4<<&5<<&&<<<<<@.  ",
"  .@6666&&67876&&669&&&&066&&ab&&66&c66&&66666@.  ",
"  .@dddd&&de&ed&&ddf&gddddd&&dd&&dd&5dh&&ddddd@.  ",
"  .@iiii&&iiiii&&iij&kliiii&&ii&&iim&no&&iiiii@.  ",
"  .@pppp&&ppppp&&ppqrs5&&pp&&pp&&pptu&&&&ppppp@.  ",
"  .@vvvvvvvvvvvvvvvvvvvvvvvvvvvvvvvvvvvvvvvvvv@.  ",
"  .@wwwwwwwwwwwwwwwwwwwwwwwwwwwwwwwwwwwwwwwwww@.  ",
"  .+@@@@@@@@@@@@@@@@@@@@@@@@@@@@@@@@@@@@@@@@@@+.  ",
"  ..............................................  ",
"                                                  ",
"                                                  "};
