/* XPM */
static char * linux_xpm[] = {
"50 20 56 1",
" 	c None",
".	c #000000",
"+	c #999999",
"@	c #9A9A9A",
"#	c #707070",
"$	c #666666",
"%	c #555555",
"&	c #FFFFFF",
"*	c #D5D5D5",
"=	c #D6D6D6",
"-	c #474747",
";	c #676767",
">	c #6B6B6B",
",	c #383838",
"'	c #D0D0D0",
")	c #B1B1B1",
"!	c #B5B5B5",
"~	c #414141",
"{	c #AEAEAE",
"]	c #EBEBEB",
"^	c #F2F2F2",
"/	c #C0C0C0",
"(	c #4C4C4C",
"_	c #7B7B7B",
":	c #232323",
"<	c #F7F7F7",
"[	c #F8F8F8",
"}	c #A8A8A8",
"|	c #636363",
"1	c #4F4F4F",
"2	c #C3C3C3",
"3	c #E8E8E8",
"4	c #FCFCFC",
"5	c #DFDFDF",
"6	c #EAEAEA",
"7	c #080808",
"8	c #010101",
"9	c #FBFBFB",
"0	c #626262",
"a	c #E9E9E9",
"b	c #141414",
"c	c #580000",
"d	c #BC9999",
"e	c #B38B8B",
"f	c #5C0707",
"g	c #EEE6E6",
"h	c #773131",
"i	c #996464",
"j	c #760000",
"k	c #7B0B0B",
"l	c #C28F8F",
"m	c #EEE1E1",
"n	c #A55959",
"o	c #F1E7E7",
"p	c #910000",
"q	c #CB0101",
"                                                  ",
"                                                  ",
"  ..............................................  ",
"  .+@@@@@@@@@@@@@@@@@@@@@@@@@@@@@@@@@@@@@@@@@@+.  ",
"  .@##########################################@.  ",
"  .@$$$$$$$$$$$$$$$$$$$$$$$$$$$$$$$$$$$$$$$$$$@.  ",
"  .@%%%%&&*%%%=&&%%%%%%%%%%%%%%%%%%%%%%%%%%%%%@.  ",
"  .@----&&&;->&&&-----------------------------@.  ",
"  .@,,,,&&'),!'&&,,~{]^/(,,&&&&]_,,&&,,&&,,,,,@.  ",
"  .@::::&&$<-[$&&::}&|1&2::&&_1&3::&4::&&:::::@.  ",
"  .@....&&.=5=.&&..6&&&&<..&&78&&..&9..&&.....@.  ",
"  .@....&&.0&0.&&..a&b.....&&..&&..&4.7&&.....@.  ",
"  .@cccc&&ccccc&&ccd&efcccc&&cc&&ccg&hi&&ccccc@.  ",
"  .@jjjj&&jjjjj&&jjklm4&&jj&&jj&&jjno&&&&jjjjj@.  ",
"  .@pppppppppppppppppppppppppppppppppppppppppp@.  ",
"  .@qqqqqqqqqqqqqqqqqqqqqqqqqqqqqqqqqqqqqqqqqq@.  ",
"  .+@@@@@@@@@@@@@@@@@@@@@@@@@@@@@@@@@@@@@@@@@@+.  ",
"  ..............................................  ",
"                                                  ",
"                                                  "};
