/* XPM */
static char * lino_xpm[] = {
"50 20 61 1",
" 	c None",
".	c #000000",
"+	c #999999",
"@	c #9A9A9A",
"#	c #707070",
"$	c #666666",
"%	c #555555",
"&	c #FFFFFF",
"*	c #D5D5D5",
"=	c #D6D6D6",
"-	c #474747",
";	c #676767",
">	c #6B6B6B",
",	c #383838",
"'	c #D0D0D0",
")	c #B1B1B1",
"!	c #B5B5B5",
"~	c #414141",
"{	c #AEAEAE",
"]	c #EBEBEB",
"^	c #F2F2F2",
"/	c #C0C0C0",
"(	c #4C4C4C",
"_	c #7B7B7B",
":	c #3A3A3A",
"<	c #232323",
"[	c #F7F7F7",
"}	c #F8F8F8",
"|	c #A8A8A8",
"1	c #636363",
"2	c #4F4F4F",
"3	c #C3C3C3",
"4	c #E8E8E8",
"5	c #FCFCFC",
"6	c #0F2000",
"7	c #D8DBD6",
"8	c #E0E3DF",
"9	c #EBECEA",
"0	c #162608",
"a	c #102101",
"b	c #FBFBFB",
"c	c #173100",
"d	c #708062",
"e	c #EAEDE9",
"f	c #294114",
"g	c #1E3708",
"h	c #1F4100",
"i	c #A5B399",
"j	c #99A88B",
"k	c #254607",
"l	c #E9ECE6",
"m	c #496531",
"n	c #768B64",
"o	c #275200",
"p	c #30590B",
"q	c #A0B38F",
"r	c #E5EAE1",
"s	c #728E59",
"t	c #EAEEE7",
"u	c #326A00",
"v	c #3E8300",
"                                                  ",
"                                                  ",
"  ..............................................  ",
"  .+@@@@@@@@@@@@@@@@@@@@@@@@@@@@@@@@@@@@@@@@@@+.  ",
"  .@##########################################@.  ",
"  .@$$$$$$$$$$$$$$$$$$$$$$$$$$$$$$$$$$$$$$$$$$@.  ",
"  .@%%%%&&*%%%=&&%%%%%%%%%%%%%%%%%%%%%%%%%%%%%@.  ",
"  .@----&&&;->&&&-----------------------------@.  ",
"  .@,,,,&&'),!'&&,,~{]^/(,,&&&&]_,,&&,,&&,::::@.  ",
"  .@<<<<&&$[-}$&&<<|&12&3<<&&_2&4<<&5<<&&<<<<<@.  ",
"  .@6666&&67876&&669&&&&[66&&0a&&66&b66&&66666@.  ",
"  .@cccc&&cd&dc&&cce&fccccc&&cc&&cc&5cg&&ccccc@.  ",
"  .@hhhh&&hhhhh&&hhi&jkhhhh&&hh&&hhl&mn&&hhhhh@.  ",
"  .@oooo&&ooooo&&oopqr5&&oo&&oo&&oost&&&&ooooo@.  ",
"  .@uuuuuuuuuuuuuuuuuuuuuuuuuuuuuuuuuuuuuuuuuu@.  ",
"  .@vvvvvvvvvvvvvvvvvvvvvvvvvvvvvvvvvvvvvvvvvv@.  ",
"  .+@@@@@@@@@@@@@@@@@@@@@@@@@@@@@@@@@@@@@@@@@@+.  ",
"  ..............................................  ",
"                                                  ",
"                                                  "};
