/* XPM */
static char * taskbuttonactive_xpm[] = {
"1 22 22 1",
" 	c None",
".	c #7C7C7C",
"+	c #767676",
"@	c #707070",
"#	c #6A6A6A",
"$	c #636363",
"%	c #5C5C5C",
"&	c #535353",
"*	c #4A4A4A",
"=	c #383838",
"-	c #252525",
";	c #1A1A1A",
">	c #121212",
",	c #0B0B0B",
"'	c #000000",
")	c #0A1600",
"!	c #0F2000",
"~	c #173100",
"{	c #1F4100",
"]	c #275200",
"^	c #326A00",
"/	c #3E8300",
".",
"+",
"@",
"#",
"$",
"%",
"&",
"*",
"=",
"-",
";",
">",
",",
"'",
")",
"!",
"~",
"{",
"]",
"^",
"/",
"'"};
