/* XPM */
static char * menusel_xpm[] = {
"1 19 19 1",
" 	c None",
".	c #707070",
"+	c #6A6A6A",
"@	c #636363",
"#	c #5C5C5C",
"$	c #535353",
"%	c #4A4A4A",
"&	c #383838",
"*	c #282828",
"=	c #171717",
"-	c #0E0E0E",
";	c #080808",
">	c #0A1600",
",	c #0F2000",
"'	c #173100",
")	c #1F4100",
"!	c #275200",
"~	c #326A00",
"{	c #3E8300",
".",
"+",
"@",
"#",
"$",
"%",
"&",
"*",
"=",
"-",
";",
";",
">",
",",
"'",
")",
"!",
"~",
"{"};
