/* XPM */
static char * titleAP_xpm[] = {
"7 30 24 1",
" 	c None",
".	c #949494",
"+	c #8D8D8D",
"@	c #848484",
"#	c #7D7D7D",
"$	c #000000",
"%	c #A2A2A2",
"&	c #7C7C7C",
"*	c #767676",
"=	c #707070",
"-	c #6A6A6A",
";	c #636363",
">	c #5C5C5C",
",	c #535353",
"'	c #4A4A4A",
")	c #383838",
"!	c #252525",
"~	c #0A1600",
"{	c #102200",
"]	c #173100",
"^	c #1F4100",
"/	c #275200",
"(	c #326A00",
"_	c #3E8300",
".......",
"+++++++",
"@@@@@@@",
"#######",
"$$$$$$$",
"$%%%%%%",
"$%&&&&&",
"$%*****",
"$%=====",
"$%-----",
"$%;;;;;",
"$%>>>>>",
"$%,,,,,",
"$%'''''",
"$%)))))",
"$%!!!!!",
"$%~~~~~",
"$%{{{{{",
"$%]]]]]",
"$%^^^^^",
"$%/////",
"$%(((((",
"$%_____",
"$%%%%%%",
"$$$$$$$",
"$$$$$$$",
"$$$$$$$",
"$$$$$$$",
"$$$$$$$",
"$$$$$$$"};
