/* XPM */
static char * depthI_xpm[] = {
"17 38 5 1",
" 	g #D0D0D0",
".	g #808080",
"+	g #EEEEEE",
"@	g #B0B0B0",
"#	g #FFFFFF",
"                 ",
"                 ",
" ............... ",
" .+++++++++++++. ",
" .+...........+. ",
" .+.@@@@.++++.+. ",
" .+.@@@@.++++.+. ",
" .+.@@@@.++++.+. ",
" .+.@@@@.++++.+. ",
"..+...........+..",
"#.+.++++.++++.+.#",
"#.+.++++.++++.+.#",
"#.+.++++.++++.+.#",
"#.+.++++.++++.+.#",
"#.+...........+.#",
"#.+++++++++++++.#",
"#...............#",
"#################",
"#################",
"                 ",
"                 ",
" ............... ",
" .+++++++++++++. ",
" .+...........+. ",
" .+.@@@@.@@@@.+. ",
" .+.@@@@.@@@@.+. ",
" .+.@@@@.@@@@.+. ",
" .+.@@@@.@@@@.+. ",
"..+...........+..",
"#.+.@@@@.@@@@.+.#",
"#.+.@@@@.@@@@.+.#",
"#.+.@@@@.@@@@.+.#",
"#.+.@@@@.@@@@.+.#",
"#.+...........+.#",
"#.+++++++++++++.#",
"#...............#",
"#################",
"#################"};
