/* XPM */
static char * depthA_xpm[] = {
"17 38 6 1",
" 	c #3B71DB",
".	c #000000",
"+	c #EEEEEE",
"@	c #808080",
"#	c #B0B0B0",
"$	c #FFFFFF",
"                 ",
"                 ",
" ............... ",
" .+++++++++++++. ",
" .+@@@@@@@@@@@+. ",
" .+@####@++++@+. ",
" .+@####@++++@+. ",
" .+@####@++++@+. ",
" .+@####@++++@+. ",
"..+@@@@@@@@@@@+..",
"$.+@++++@++++@+.$",
"$.+@++++@++++@+.$",
"$.+@++++@++++@+.$",
"$.+@++++@++++@+.$",
"$.+@@@@@@@@@@@+.$",
"$.+++++++++++++.$",
"$...............$",
"$$$$$$$$$$$$$$$$$",
"$$$$$$$$$$$$$$$$$",
"                 ",
"                 ",
" ............... ",
" .+++++++++++++. ",
" .+@@@@@@@@@@@+. ",
" .+@####@####@+. ",
" .+@####@####@+. ",
" .+@####@####@+. ",
" .+@####@####@+. ",
"..+@@@@@@@@@@@+..",
"$.+@####@####@+.$",
"$.+@####@####@+.$",
"$.+@####@####@+.$",
"$.+@####@####@+.$",
"$.+@@@@@@@@@@@+.$",
"$.+++++++++++++.$",
"$...............$",
"$$$$$$$$$$$$$$$$$",
"$$$$$$$$$$$$$$$$$"};
