/* XPM */
static char * hideA_xpm[] = {
"17 38 22 1",
" 	c #3B71DB",
".	c #000000",
"+	c #EEEEEE",
"@	c #808080",
"#	c #8B8B8B",
"$	c #969696",
"%	c #A1A1A1",
"&	c #ACACAC",
"*	c #B7B7B7",
"=	c #C2C2C2",
"-	c #CDCDCD",
";	c #D8D8D8",
">	c #E3E3E3",
",	c #FFFFFF",
"'	c #8E8E8E",
")	c #9C9C9C",
"!	c #A9A9A9",
"~	c #C5C5C5",
"{	c #D2D2D2",
"]	c #E0E0E0",
"^	c #D3D3D3",
"/	c #E1E1E1",
"                 ",
"                 ",
" ............... ",
" .+++++++++++++. ",
" .+@#$%&*=-;>++. ",
" .+@#$%&*=-;>++. ",
" .+@+++++++++++. ",
" .+@+++++++++++. ",
" .+@+++++++++++. ",
"..+@+++++++++++..",
",.+@+++++++++++.,",
",.+@+++++++++++.,",
",.+@+++++++++++.,",
",.+@+++++++++++.,",
",.+@#$%&*=-;>++.,",
",.+++++++++++++.,",
",...............,",
",,,,,,,,,,,,,,,,,",
",,,,,,,,,,,,,,,,,",
"                 ",
"                 ",
"                 ",
"  .............  ",
"  .+++++++++++.  ",
"  .+@')!*~{]++.  ",
"  .+@')!*~^]++.  ",
"  .+@+++++++++.  ",
"  .+@+++++++++.  ",
"...+@+++++++++...",
",,.+@+++++++++.,,",
",,.+@+++++++++.,,",
",,.+@+++++++++.,,",
",,.+@')!*~{/++.,,",
",,.+++++++++++.,,",
",,.............,,",
",,,,,,,,,,,,,,,,,",
",,,,,,,,,,,,,,,,,",
",,,,,,,,,,,,,,,,,"};
