/* XPM */
static char * hideI_xpm[] = {
"17 38 21 1",
" 	g #D0D0D0",
".	g #808080",
"+	g #EEEEEE",
"@	g #8B8B8B",
"#	g #969696",
"$	g #A1A1A1",
"%	g #ACACAC",
"&	g #B7B7B7",
"*	g #C2C2C2",
"=	g #CDCDCD",
"-	g #D8D8D8",
";	g #E3E3E3",
">	g #FFFFFF",
",	g #8E8E8E",
"'	g #9C9C9C",
")	g #A9A9A9",
"!	g #C5C5C5",
"~	g #D2D2D2",
"{	g #E0E0E0",
"]	g #D3D3D3",
"^	g #E1E1E1",
"                 ",
"                 ",
" ............... ",
" .+++++++++++++. ",
" .+.@#$%&*=-;++. ",
" .+.@#$%&*=-;++. ",
" .+.+++++++++++. ",
" .+.+++++++++++. ",
" .+.+++++++++++. ",
"..+.+++++++++++..",
">.+.+++++++++++.>",
">.+.+++++++++++.>",
">.+.+++++++++++.>",
">.+.+++++++++++.>",
">.+.@#$%&*=-;++.>",
">.+++++++++++++.>",
">...............>",
">>>>>>>>>>>>>>>>>",
">>>>>>>>>>>>>>>>>",
"                 ",
"                 ",
"                 ",
"  .............  ",
"  .+++++++++++.  ",
"  .+.,')&!~{++.  ",
"  .+.,')&!]{++.  ",
"  .+.+++++++++.  ",
"  .+.+++++++++.  ",
"...+.+++++++++...",
">>.+.+++++++++.>>",
">>.+.+++++++++.>>",
">>.+.+++++++++.>>",
">>.+.,')&!~^++.>>",
">>.+++++++++++.>>",
">>.............>>",
">>>>>>>>>>>>>>>>>",
">>>>>>>>>>>>>>>>>",
">>>>>>>>>>>>>>>>>"};
