/* XPM */
static char * menuButtonI_xpm[] = {
"19 38 6 1",
" 	c None",
".	c #D0D0D0",
"+	c #808080",
"@	c #EEEEEE",
"#	c #FFFFFF",
"$	c #B0B0B0",
"...................",
"...................",
".+++++++++++++++...",
".+@@@@@@@@@@@@@+...",
".+@@@@@@@@@@@@@+...",
".+@@@@@@@@@@@@@+...",
".+@@@@@+++@@@@@+...",
".+@@@@+@@@+@@@@+...",
".+@@@+@@@@@+@@@+...",
"++@@@+@@@@@+@@@++++",
"#+@@@+@@@@@+@@@+###",
"#+@@@@+@@@+@@@@+###",
"#+@@@@@+++@@@@@+###",
"#+@@@@@@@@@@@@@+###",
"#+@@@@@@@@@@@@@+###",
"#+@@@@@@@@@@@@@+###",
"#+++++++++++++++###",
"###################",
"###################",
"...................",
"...................",
"...................",
"..+++++++++++++....",
"..+@@@@@@@@@@@+....",
"..+@@@@@@@@@@@+....",
"..+@@@@+++@@@@+....",
"..+@@@+$$$+@@@+....",
"..+@@+$$$$$+@@+....",
"+++@@+$$$$$+@@+++++",
"##+@@+$$$$$+@@+####",
"##+@@@+$$$+@@@+####",
"##+@@@@+++@@@@+####",
"##+@@@@@@@@@@@+####",
"##+@@@@@@@@@@@+####",
"##+++++++++++++####",
"###################",
"###################",
"###################"};
