/* XPM */
static char * menuButtonA_xpm[] = {
"19 38 6 1",
" 	c #3B71DB",
".	c #000000",
"+	c #EEEEEE",
"@	c #808080",
"#	c #FFFFFF",
"$	c #B0B0B0",
"                   ",
"                   ",
" ...............   ",
" .+++++++++++++.   ",
" .+++++++++++++.   ",
" .+++++++++++++.   ",
" .+++++@@@+++++.   ",
" .++++@+++@++++.   ",
" .+++@+++++@+++.   ",
"..+++@+++++@+++....",
"#.+++@+++++@+++.###",
"#.++++@+++@++++.###",
"#.+++++@@@+++++.###",
"#.+++++++++++++.###",
"#.+++++++++++++.###",
"#.+++++++++++++.###",
"#...............###",
"###################",
"###################",
"                   ",
"                   ",
"                   ",
"  .............    ",
"  .+++++++++++.    ",
"  .+++++++++++.    ",
"  .++++@@@++++.    ",
"  .+++@$$$@+++.    ",
"  .++@$$$$$@++.    ",
"...++@$$$$$@++.....",
"##.++@$$$$$@++.####",
"##.+++@$$$@+++.####",
"##.++++@@@++++.####",
"##.+++++++++++.####",
"##.+++++++++++.####",
"##.............####",
"###################",
"###################",
"###################"};
