/* XPM */
static char * minimizeA_xpm[] = {
"17 38 5 1",
" 	c #3B71DB",
".	c #000000",
"+	c #EEEEEE",
"@	c #FFFFFF",
"#	c #808080",
"                 ",
"                 ",
" ............... ",
" .+++++++++++++. ",
" .+++++++++++++. ",
" .+++++++++++++. ",
" .+++++++++++++. ",
" .+++++++++++++. ",
" .+++++++++++++. ",
"..+++++++++++++..",
"@.+++++++++++++.@",
"@.+++++++++++++.@",
"@.++#######++++.@",
"@.++#######++++.@",
"@.+++++++++++++.@",
"@.+++++++++++++.@",
"@...............@",
"@@@@@@@@@@@@@@@@@",
"@@@@@@@@@@@@@@@@@",
"                 ",
"                 ",
"                 ",
"  .............  ",
"  .+++++++++++.  ",
"  .+++++++++++.  ",
"  .+++++++++++.  ",
"  .+++++++++++.  ",
"  .+++++++++++.  ",
"...+++++++++++...",
"@@.+++++++++++.@@",
"@@.++######+++.@@",
"@@.++######+++.@@",
"@@.+++++++++++.@@",
"@@.+++++++++++.@@",
"@@.............@@",
"@@@@@@@@@@@@@@@@@",
"@@@@@@@@@@@@@@@@@",
"@@@@@@@@@@@@@@@@@"};
