/* XPM */
static char * rolldownI_xpm[] = {
"17 38 4 1",
" 	g #D0D0D0",
".	g #808080",
"+	g #EEEEEE",
"@	g #FFFFFF",
"                 ",
"                 ",
" ............... ",
" .+++++++++++++. ",
" .+...........+. ",
" .+.+++++++++.+. ",
" .+...........+. ",
" .+++++++++++++. ",
" .+++++++++++++. ",
"..++++++.++++++..",
"@.++++++.++++++.@",
"@.++++++.++++++.@",
"@.++++.+.+.++++.@",
"@.+++++...+++++.@",
"@.++++++.++++++.@",
"@.+++++++++++++.@",
"@...............@",
"@@@@@@@@@@@@@@@@@",
"@@@@@@@@@@@@@@@@@",
"                 ",
"                 ",
"                 ",
"  .............  ",
"  .+++++++++++.  ",
"  .+.........+.  ",
"  .+.+++++++.+.  ",
"  .+.........+.  ",
"  .+++++++++++.  ",
"...+++++.+++++...",
"@@.+++++.+++++.@@",
"@@.+++.+.+.+++.@@",
"@@.++++...++++.@@",
"@@.+++++.+++++.@@",
"@@.+++++++++++.@@",
"@@.............@@",
"@@@@@@@@@@@@@@@@@",
"@@@@@@@@@@@@@@@@@",
"@@@@@@@@@@@@@@@@@"};
