/* XPM */
static char * titleAJ_xpm[] = {
"1 19 3 1",
" 	c #3B71DB",
".	c #000000",
"+	c #FFFFFF",
" ",
" ",
" ",
" ",
" ",
" ",
" ",
" ",
" ",
".",
"+",
"+",
"+",
"+",
"+",
"+",
"+",
"+",
"+"};
