/* XPM */
static char * titleIL_xpm[] = {
"12 19 3 1",
" 	g #D0D0D0",
".	g #808080",
"+	g #FFFFFF",
"            ",
"            ",
"            ",
"            ",
"            ",
"            ",
"            ",
"            ",
"            ",
"...         ",
"+++.        ",
"++++.       ",
"+++++.      ",
"++++++.     ",
"+++++++.    ",
"++++++++.   ",
"+++++++++.  ",
"++++++++++. ",
"+++++++++++."};
