/* XPM */
static char * titleAR_xpm[] = {
"10 19 3 1",
" 	c #3B71DB",
".	c #000000",
"+	c #FFFFFF",
"          ",
"          ",
"          ",
"          ",
"          ",
"          ",
"          ",
"          ",
"          ",
"         .",
"        .+",
"       .++",
"      .+++",
"     .++++",
"    .+++++",
"   .++++++",
"  .+++++++",
" .++++++++",
".+++++++++"};
