/* XPM */
static char * windows_xpm[] = {
"24 20 10 1",
" 	c None",
".	c #000000",
"+	c #949494",
"@	c #B5B5B5",
"#	c #383838",
"$	c #444444",
"%	c #505050",
"&	c #5C5C5C",
"*	c #6D6D6D",
"=	c #7C7C7C",
"                        ",
"                        ",
"                        ",
" .............          ",
".+++++++++++++.         ",
".@@@@@@@@@@@@@.         ",
"....................... ",
"...............++++++++.",
".#############.@@@@@@@@.",
".$$$$$$$$$$$$$..........",
".%%%%%%%%%%%%%..........",
".&&&&&&&&&&&&&.########.",
".*************.$$$$$$$$.",
".=============.%%%%%%%%.",
" .............&&&&&&&&&.",
"         .*************.",
"         .=============.",
"          ............. ",
"                        ",
"                        "};
