/* XPM */
static char * closeA_xpm[] = {
"25 60 26 1",
" 	c None",
".	c #949494",
"+	c #8D8D8D",
"@	c #848484",
"#	c #7D7D7D",
"$	c #747474",
"%	c #6D6D6D",
"&	c #000000",
"*	c #9A9A9A",
"=	c #707070",
"-	c #666666",
";	c #555555",
">	c #FFFFFF",
",	c #414141",
"'	c #2E2E2E",
")	c #3F2C00",
"!	c #5E4200",
"~	c #7B5700",
"{	c #8F6500",
"]	c #B37E00",
"^	c #A9A9A9",
"/	c #9F9F9F",
"(	c #969696",
"_	c #8E8E8E",
":	c #888888",
"<	c #828282",
".........................",
"+++++++++++++++++++++++++",
"@@@@@@@@@@@@@@@@@@@@@@@@@",
"#########################",
"$$$$$$$$$$$$$$$$$$$$$$$$$",
"%%%%%%%%%%%%%%%%%%%%%%%%%",
"&&&&&&&&&&&&&&&&&&&&&&&&&",
"&***********************&",
"&*=====================*&",
"&*--------&---&--------*&",
"&*;;;;;;;&>&;&>&;;;;;;;*&",
"&*,,,,,,,,&>&>&,,,,,,,,*&",
"&*'''''''''&>&'''''''''*&",
"&*)))))))))&>&)))))))))*&",
"&*!!!!!!!!&>&>&!!!!!!!!*&",
"&*~~~~~~~&>&~&>&~~~~~~~*&",
"&*{{{{{{{{&{{{&{{{{{{{{*&",
"&*]]]]]]]]]]]]]]]]]]]]]*&",
"&***********************&",
"&&&&&&&&&&&&&&&&&&&&&&&&&",
"&&&&&&&&&&&&&&&&&&&&&&&&&",
"&&&&&&&&&&&&&&&&&&&&&&&&&",
"&&&&&&&&&&&&&&&&&&&&&&&&&",
"&&&&&&&&&&&&&&&&&&&&&&&&&",
"&&&&&&&&&&&&&&&&&&&&&&&&&",
"&&&&&&&&&&&&&&&&&&&&&&&&&",
"&&&&&&&&&&&&&&&&&&&&&&&&&",
"&&&&&&&&&&&&&&&&&&&&&&&&&",
"&&&&&&&&&&&&&&&&&&&&&&&&&",
"&&&&&&&&&&&&&&&&&&&&&&&&&",
"^^^^^^^^^^^^^^^^^^^^^^^^^",
"/////////////////////////",
"(((((((((((((((((((((((((",
"_________________________",
":::::::::::::::::::::::::",
"<<<<<<<<<<<<<<<<<<<<<<<<<",
"&&&&&&&&&&&&&&&&&&&&&&&&&",
"&***********************&",
"&*=====================*&",
"&*--------&---&--------*&",
"&*;;;;;;;&>&;&>&;;;;;;;*&",
"&*,,,,,,,,&>&>&,,,,,,,,*&",
"&*'''''''''&>&'''''''''*&",
"&*)))))))))&>&)))))))))*&",
"&*!!!!!!!!&>&>&!!!!!!!!*&",
"&*~~~~~~~&>&~&>&~~~~~~~*&",
"&*{{{{{{{{&{{{&{{{{{{{{*&",
"&*]]]]]]]]]]]]]]]]]]]]]*&",
"&***********************&",
"&&&&&&&&&&&&&&&&&&&&&&&&&",
"&&&&&&&&&&&&&&&&&&&&&&&&&",
"&&&&&&&&&&&&&&&&&&&&&&&&&",
"&&&&&&&&&&&&&&&&&&&&&&&&&",
"&&&&&&&&&&&&&&&&&&&&&&&&&",
"&&&&&&&&&&&&&&&&&&&&&&&&&",
"&&&&&&&&&&&&&&&&&&&&&&&&&",
"&&&&&&&&&&&&&&&&&&&&&&&&&",
"&&&&&&&&&&&&&&&&&&&&&&&&&",
"&&&&&&&&&&&&&&&&&&&&&&&&&",
"&&&&&&&&&&&&&&&&&&&&&&&&&"};
