/* XPM */
static char * rollupA_xpm[] = {
"25 60 20 1",
" 	c None",
".	c #949494",
"+	c #8D8D8D",
"@	c #848484",
"#	c #7D7D7D",
"$	c #747474",
"%	c #6D6D6D",
"&	c #000000",
"*	c #A2A2A2",
"=	c #707070",
"-	c #666666",
";	c #555555",
">	c #414141",
",	c #FFFFFF",
"'	c #2E2E2E",
")	c #3F2C00",
"!	c #5E4200",
"~	c #7B5700",
"{	c #8F6500",
"]	c #B37E00",
".........................",
"+++++++++++++++++++++++++",
"@@@@@@@@@@@@@@@@@@@@@@@@@",
"#########################",
"$$$$$$$$$$$$$$$$$$$$$$$$$",
"%%%%%%%%%%%%%%%%%%%%%%%%%",
"&&&&&&&&&&&&&&&&&&&&&&&&&",
"&***********************&",
"&*=====================*&",
"&*---------------------*&",
"&*;;;;;;;;;;&;;;;;;;;;;*&",
"&*>>>>>>>>>&,&>>>>>>>>>*&",
"&*''''''''&,&,&''''''''*&",
"&*)))))))&,&)&,&)))))))*&",
"&*!!!!!!&,&!!!&,&!!!!!!*&",
"&*~~~~~~~&~~~~~&~~~~~~~*&",
"&*{{{{{{{{{{{{{{{{{{{{{*&",
"&*]]]]]]]]]]]]]]]]]]]]]*&",
"&***********************&",
"&&&&&&&&&&&&&&&&&&&&&&&&&",
"&&&&&&&&&&&&&&&&&&&&&&&&&",
"&&&&&&&&&&&&&&&&&&&&&&&&&",
"&&&&&&&&&&&&&&&&&&&&&&&&&",
"&&&&&&&&&&&&&&&&&&&&&&&&&",
"&&&&&&&&&&&&&&&&&&&&&&&&&",
"&&&&&&&&&&&&&&&&&&&&&&&&&",
"&&&&&&&&&&&&&&&&&&&&&&&&&",
"&&&&&&&&&&&&&&&&&&&&&&&&&",
"&&&&&&&&&&&&&&&&&&&&&&&&&",
"&&&&&&&&&&&&&&&&&&&&&&&&&",
".........................",
"+++++++++++++++++++++++++",
"@@@@@@@@@@@@@@@@@@@@@@@@@",
"#########################",
"$$$$$$$$$$$$$$$$$$$$$$$$$",
"%%%%%%%%%%%%%%%%%%%%%%%%%",
"&&&&&&&&&&&&&&&&&&&&&&&&&",
"&***********************&",
"&*=====================*&",
"&*---------------------*&",
"&*;;;;;;;;;;&;;;;;;;;;;*&",
"&*>>>>>>>>>&,&>>>>>>>>>*&",
"&*''''''''&,&,&''''''''*&",
"&*)))))))&,&)&,&)))))))*&",
"&*!!!!!!&,&!!!&,&!!!!!!*&",
"&*~~~~~~~&~~~~~&~~~~~~~*&",
"&*{{{{{{{{{{{{{{{{{{{{{*&",
"&*]]]]]]]]]]]]]]]]]]]]]*&",
"&***********************&",
"&&&&&&&&&&&&&&&&&&&&&&&&&",
"&&&&&&&&&&&&&&&&&&&&&&&&&",
"&&&&&&&&&&&&&&&&&&&&&&&&&",
"&&&&&&&&&&&&&&&&&&&&&&&&&",
"&&&&&&&&&&&&&&&&&&&&&&&&&",
"&&&&&&&&&&&&&&&&&&&&&&&&&",
"&&&&&&&&&&&&&&&&&&&&&&&&&",
"&&&&&&&&&&&&&&&&&&&&&&&&&",
"&&&&&&&&&&&&&&&&&&&&&&&&&",
"&&&&&&&&&&&&&&&&&&&&&&&&&",
"&&&&&&&&&&&&&&&&&&&&&&&&&"};
