/* XPM */
static char * rolldownO_xpm[] = {
"25 60 26 1",
" 	c None",
".	c #949494",
"+	c #8D8D8D",
"@	c #848484",
"#	c #7D7D7D",
"$	c #747474",
"%	c #6D6D6D",
"&	c #000000",
"*	c #353535",
"=	c #B7B7B7",
"-	c #828282",
";	c #707070",
">	c #555555",
",	c #414141",
"'	c #FFFFFF",
")	c #2E2E2E",
"!	c #3F2C00",
"~	c #5E4200",
"{	c #7B5700",
"]	c #B07C00",
"^	c #E19F00",
"/	c #FFE8B2",
"(	c #202020",
"_	c #666666",
":	c #8F6500",
"<	c #B37E00",
".........................",
"+++++++++++++++++++++++++",
"@@@@@@@@@@@@@@@@@@@@@@@@@",
"#########################",
"$$$$$$$$$$$$$$$$$$$$$$$$$",
"%%%%%%%%%%%%%%%%%%%%%%%%%",
"&&&&&&&&&&&&&&&&&&&&&&&&&",
"*=======================*",
"*=---------------------=*",
"*=;;;;;;;;;;;;;;;;;;;;;=*",
"*=>>>>>>>&>>>>>&>>>>>>>=*",
"*=,,,,,,&'&,,,&'&,,,,,,=*",
"*=)))))))&'))&'&)))))))=*",
"*=!!!!!!!!&'&'&!!!!!!!!=*",
"*=~~~~~~~~~&'&~~~~~~~~~=*",
"*={{{{{{{{{{&{{{{{{{{{{=*",
"*=]]]]]]]]]]]]]]]]]]]]]=*",
"*=^^^^^^^^^^^^^^^^^^^^^=*",
"*///////////////////////*",
"(***********************(",
"&&&&&&&&&&&&&&&&&&&&&&&&&",
"&&&&&&&&&&&&&&&&&&&&&&&&&",
"&&&&&&&&&&&&&&&&&&&&&&&&&",
"&&&&&&&&&&&&&&&&&&&&&&&&&",
"&&&&&&&&&&&&&&&&&&&&&&&&&",
"&&&&&&&&&&&&&&&&&&&&&&&&&",
"&&&&&&&&&&&&&&&&&&&&&&&&&",
"&&&&&&&&&&&&&&&&&&&&&&&&&",
"&&&&&&&&&&&&&&&&&&&&&&&&&",
"&&&&&&&&&&&&&&&&&&&&&&&&&",
".........................",
"+++++++++++++++++++++++++",
"@@@@@@@@@@@@@@@@@@@@@@@@@",
"#########################",
"$$$$$$$$$$$$$$$$$$$$$$$$$",
"%%%%%%%%%%%%%%%%%%%%%%%%%",
"&&&&&&&&&&&&&&&&&&&&&&&&&",
"*=======================*",
"*=;;;;;;;;;;;;;;;;;;;;;=*",
"*=_____________________=*",
"*=>>>>>>>>>>>>>>>>>>>>>=*",
"*=,,,,,,,&,,,,,&,,,,,,,=*",
"*=))))))&'&)))&'&))))))=*",
"*=!!!!!!!&'&!&'&!!!!!!!=*",
"*=~~~~~~~~&'&'&~~~~~~~~=*",
"*={{{{{{{{{&'&{{{{{{{{{=*",
"*=::::::::::&::::::::::=*",
"*=<<<<<<<<<<<<<<<<<<<<<=*",
"*=======================*",
"(***********************(",
"&&&&&&&&&&&&&&&&&&&&&&&&&",
"&&&&&&&&&&&&&&&&&&&&&&&&&",
"&&&&&&&&&&&&&&&&&&&&&&&&&",
"&&&&&&&&&&&&&&&&&&&&&&&&&",
"&&&&&&&&&&&&&&&&&&&&&&&&&",
"&&&&&&&&&&&&&&&&&&&&&&&&&",
"&&&&&&&&&&&&&&&&&&&&&&&&&",
"&&&&&&&&&&&&&&&&&&&&&&&&&",
"&&&&&&&&&&&&&&&&&&&&&&&&&",
"&&&&&&&&&&&&&&&&&&&&&&&&&"};
