/* XPM */
static char * titleAM_xpm[] = {
"7 30 24 1",
" 	c None",
".	c #949494",
"+	c #8D8D8D",
"@	c #848484",
"#	c #7D7D7D",
"$	c #000000",
"%	c #A2A2A2",
"&	c #7C7C7C",
"*	c #767676",
"=	c #707070",
"-	c #6A6A6A",
";	c #636363",
">	c #5C5C5C",
",	c #535353",
"'	c #4A4A4A",
")	c #383838",
"!	c #252525",
"~	c #221800",
"{	c #352500",
"]	c #3F2C00",
"^	c #5E4200",
"/	c #7B5700",
"(	c #8F6500",
"_	c #B37E00",
".......",
"+++++++",
"@@@@@@@",
"#######",
"$$$$$$$",
"%%%%%%$",
"&&&&&%$",
"*****%$",
"=====%$",
"-----%$",
";;;;;%$",
">>>>>%$",
",,,,,%$",
"'''''%$",
")))))%$",
"!!!!!%$",
"~~~~~%$",
"{{{{{%$",
"]]]]]%$",
"^^^^^%$",
"/////%$",
"(((((%$",
"_____%$",
"%%%%%%$",
"$$$$$$$",
"$$$$$$$",
"$$$$$$$",
"$$$$$$$",
"$$$$$$$",
"$$$$$$$"};
